# xmcd CD database file generated by OrangeCD 5.2
#
# Track frame offsets:
#	150
#	11785
#	23740
#	36245
#	48315
#	64805
#	77420
#	92915
#	105927
#	117935
#	133940
#	145770
#	159620
#	172835
#	188317
#	200377
#
# Disc length: 2955 seconds
#
# Revision: 3
# Processed by: cddbd v1.5.1PL0 Copyright (c) Steve Scherf et al.
# Submitted via: OrangeCD 5.2
#
DISCID=c70b8910
DTITLE=The Dean Brothers - Same Train Different Track
DYEAR=1997
DGENRE=Country
TTITLE0=Lonely's Never Been So Much Fun
TTITLE1=Such A Good Time
TTITLE2=No Future In The Past
TTITLE3=Teardrops Willl Fall
TTITLE4=Love Runs OUt
TTITLE5=It's Hit The Fan
TTITLE6=Line Dance Fever
TTITLE7=These Boots Are Ready To Dance
TTITLE8=Wild Roses
TTITLE9=You're The One
TTITLE10=Angel
TTITLE11=I Think Of You
TTITLE12=You've Been Missing
TTITLE13=Hey Operator
TTITLE14=Hooked
TTITLE15=My Baby Thinks She's A Train
EXTD=
EXTT0=
EXTT1=
EXTT2=
EXTT3=
EXTT4=
EXTT5=
EXTT6=
EXTT7=
EXTT8=
EXTT9=
EXTT10=
EXTT11=
EXTT12=
EXTT13=
EXTT14=
EXTT15=
PLAYORDER=
